<svg height="512" viewBox="0 0 64 64" width="512" xmlns="http://www.w3.org/2000/svg"><g id="Artificial_Intelligence" data-name="Artificial Intelligence"><path d="m61 52h-3v-33a3 3 0 0 0 -3-3h-18v-2h5a1 1 0 0 0 1-1v-3.142a4 4 0 1 0 -2 0v2.142h-5a1 1 0 0 0 -1 1v3h-2v-6.142a4 4 0 1 0 -2 0v6.142h-2v-3a1 1 0 0 0 -1-1h-5v-2.142a4 4 0 1 0 -2 0v3.142a1 1 0 0 0 1 1h5v2h-18a3 3 0 0 0 -3 3v33h-3a1 1 0 0 0 -1 1v4a5.006 5.006 0 0 0 5 5h50a5.006 5.006 0 0 0 5-5v-4a1 1 0 0 0 -1-1zm-21-46a2 2 0 1 1 2 2 2 2 0 0 1 -2-2zm-20 0a2 2 0 1 1 2 2 2 2 0 0 1 -2-2zm13 13v1h-2v-1a1 1 0 0 1 2 0zm8 7a1 1 0 0 1 1 1v12a1 1 0 0 1 -1 1h-18a1 1 0 0 1 -1-1v-12a1 1 0 0 1 1-1zm-4-2h-10v-1a1 1 0 0 1 1-1h8a1 1 0 0 1 1 1zm-7-18a2 2 0 1 1 2 2 2 2 0 0 1 -2-2zm-22 13a1 1 0 0 1 1-1h20.184a2.966 2.966 0 0 0 -.184 1v1h-1a3 3 0 0 0 -3 3v1h-2a3 3 0 0 0 -3 3v12a3 3 0 0 0 3 3h18a3 3 0 0 0 3-3v-12a3 3 0 0 0 -3-3h-2v-1a3 3 0 0 0 -3-3h-1v-1a2.966 2.966 0 0 0 -.184-1h20.184a1 1 0 0 1 1 1v33h-14a1 1 0 0 0 -1 1v2a1 1 0 0 1 -1 1h-16a1 1 0 0 1 -1-1v-2a1 1 0 0 0 -1-1h-14zm52 38a3 3 0 0 1 -3 3h-50a3 3 0 0 1 -3-3v-3h17v1a3 3 0 0 0 3 3h16a3 3 0 0 0 3-3v-1h17z"/><path d="m27 34a3 3 0 1 0 -3-3 3 3 0 0 0 3 3zm0-4a1 1 0 1 1 -1 1 1 1 0 0 1 1-1z"/><path d="m37 34a3 3 0 1 0 -3-3 3 3 0 0 0 3 3zm0-4a1 1 0 1 1 -1 1 1 1 0 0 1 1-1z"/><path d="m29 36h6v2h-6z"/><path d="m25 36h2v2h-2z"/><path d="m37 36h2v2h-2z"/><path d="m12 23h2v2h-2z"/><path d="m16 23h2v2h-2z"/><path d="m12 27h2v2h-2z"/><path d="m16 27h2v2h-2z"/><path d="m12 31h2v2h-2z"/><path d="m16 31h2v2h-2z"/><path d="m12 35h2v2h-2z"/><path d="m16 35h2v2h-2z"/><path d="m12 39h2v2h-2z"/><path d="m16 39h2v2h-2z"/><path d="m46 23h2v2h-2z"/><path d="m50 23h2v2h-2z"/><path d="m46 27h2v2h-2z"/><path d="m50 27h2v2h-2z"/><path d="m46 31h2v2h-2z"/><path d="m50 31h2v2h-2z"/><path d="m46 35h2v2h-2z"/><path d="m50 35h2v2h-2z"/><path d="m46 39h2v2h-2z"/><path d="m50 39h2v2h-2z"/><path d="m12 44h40v2h-40z"/><path d="m12 48h40v2h-40z"/></g></svg>